<svg width="896" height="451" viewBox="0 0 896 451" fill="none" xmlns="http://www.w3.org/2000/svg">
<path d="M895.162 445.262C894.562 443.562 892.962 442.562 891.262 442.562L878.362 350.362C878.462 350.362 878.562 350.262 878.662 350.262C880.762 349.462 881.862 347.162 881.062 345.062C880.562 343.662 879.362 342.662 877.962 342.462L882.762 242.562C883.162 242.562 883.462 242.462 883.862 242.362C885.962 241.562 887.062 239.262 886.262 237.162C885.462 235.062 883.162 233.962 881.062 234.762C880.462 234.962 879.962 235.262 879.562 235.662L823.262 192.262C823.862 191.262 823.962 189.962 823.562 188.762C822.762 186.662 820.462 185.562 818.362 186.362C817.962 186.562 817.562 186.762 817.162 187.062L781.662 153.562C782.462 152.462 782.662 151.062 782.162 149.762C781.762 148.762 781.162 148.062 780.262 147.562L804.762 83.5617C805.562 83.7617 806.362 83.7617 807.162 83.4617C809.262 82.6617 810.362 80.3617 809.562 78.2617C808.962 76.4617 807.162 75.4617 805.362 75.5617L794.462 25.4617C796.562 24.6617 797.662 22.3617 796.862 20.2617C796.062 18.1617 793.762 17.0617 791.662 17.8617C790.562 18.2617 789.662 19.1617 789.262 20.1617L727.462 4.56172C727.562 3.96172 727.462 3.26172 727.262 2.66172C726.462 0.561723 724.162 -0.538271 722.062 0.261729C719.962 1.06173 718.862 3.36174 719.662 5.46174C719.662 5.56174 719.762 5.66172 719.762 5.66172L608.962 72.5617L608.662 72.2617L608.462 72.8617L606.662 73.9617L608.062 73.8617L580.462 144.862C579.662 144.662 578.862 144.662 578.062 144.962C576.462 145.562 575.462 147.062 575.362 148.662L515.262 155.262C515.262 155.162 515.162 154.962 515.162 154.862C514.362 152.762 512.062 151.662 509.962 152.462C508.062 153.162 506.962 155.162 507.362 157.162L346.562 123.862C346.562 123.262 346.562 122.762 346.362 122.162C345.562 120.062 343.262 118.962 341.162 119.762C339.062 120.562 337.962 122.862 338.762 124.962C339.062 125.762 339.562 126.462 340.262 126.862L276.762 247.062C275.862 246.762 274.862 246.662 273.962 247.062C273.062 247.362 272.362 247.962 271.962 248.662L219.762 224.262C220.062 223.462 220.062 222.462 219.662 221.662C218.862 219.562 216.562 218.462 214.462 219.262C212.962 219.762 212.062 221.062 211.862 222.562H159.462C159.462 222.262 159.362 221.962 159.262 221.662C158.462 219.562 156.162 218.462 154.062 219.262C151.962 220.062 150.862 222.362 151.662 224.462C151.762 224.662 151.762 224.762 151.862 224.962L74.3617 278.562C73.2617 277.362 71.5617 276.862 69.9617 277.462C67.8617 278.262 66.7617 280.562 67.5617 282.662C68.0617 284.062 69.2617 284.962 70.5617 285.262L66.6617 339.162C66.1617 339.162 65.7617 339.262 65.2617 339.362C63.3617 340.062 62.2617 342.162 62.6617 344.062L7.96173 358.862C7.96173 358.762 7.96173 358.662 7.86173 358.662C7.06173 356.562 4.76173 355.462 2.66173 356.262C0.56173 357.062 -0.538272 359.362 0.261728 361.462C1.06173 363.562 3.36173 364.662 5.46173 363.862C5.56173 363.862 5.66173 363.762 5.86173 363.662L19.8617 390.562C18.3617 391.562 17.7617 393.562 18.3617 395.262C19.1617 397.362 21.4617 398.462 23.5617 397.662C24.9617 397.162 25.8617 396.062 26.1617 394.762L94.8617 400.862C94.8617 401.262 94.9617 401.662 95.0617 402.062C95.8617 404.162 98.1617 405.262 100.262 404.462C101.862 403.862 102.762 402.462 102.962 400.962L114.462 399.162L178.362 389.462C179.162 391.462 181.462 392.562 183.562 391.762C185.662 390.962 186.762 388.662 185.962 386.562C185.762 385.962 185.362 385.462 184.962 384.962L224.062 333.162C225.062 333.662 226.262 333.862 227.362 333.462L244.762 366.662L324.862 324.962C325.862 326.462 327.862 327.062 329.562 326.462C330.462 326.162 331.262 325.462 331.662 324.662L379.162 344.562C378.962 345.362 378.962 346.262 379.262 347.062C380.062 349.162 382.362 350.262 384.462 349.462C385.462 349.062 386.162 348.362 386.662 347.562L465.462 376.962C465.262 377.662 465.362 378.462 465.562 379.262C466.362 381.362 468.662 382.462 470.762 381.662C472.862 380.862 473.962 378.562 473.162 376.462C472.862 375.662 472.262 374.962 471.662 374.462L496.862 324.762C497.762 325.062 498.662 325.062 499.662 324.762C501.462 324.062 502.562 322.162 502.262 320.362L630.362 283.662L630.262 283.162C630.762 284.462 631.862 285.362 633.162 285.762L627.462 337.862C627.062 337.862 626.562 337.962 626.162 338.062C624.062 338.862 622.962 341.162 623.762 343.262C624.562 345.362 626.862 346.462 628.962 345.662C630.162 345.162 631.062 344.162 631.462 343.062L743.162 362.062C743.162 362.562 743.262 363.062 743.362 363.462C743.962 365.062 745.362 366.062 746.962 366.162L748.962 414.062C748.762 414.062 748.662 414.162 748.462 414.162C746.362 414.962 745.262 417.262 746.062 419.362C746.862 421.462 749.162 422.562 751.262 421.762C752.362 421.362 753.262 420.462 753.662 419.462L887.262 445.962C887.262 446.562 887.262 447.062 887.462 447.662C888.262 449.762 890.562 450.862 892.662 450.062C894.862 449.662 895.962 447.362 895.162 445.262ZM890.262 442.762C890.162 442.762 890.062 442.862 889.962 442.862C889.262 443.162 888.562 443.562 888.162 444.162L798.262 391.762L874.062 348.962C874.862 349.962 876.062 350.562 877.362 350.562L890.262 442.762ZM750.962 364.162C751.162 363.662 751.262 363.162 751.262 362.662L873.362 347.462C873.362 347.562 873.462 347.762 873.462 347.862C873.462 347.862 873.462 347.962 873.562 347.962L797.262 391.062L750.962 364.162ZM629.562 338.662L665.462 245.962C666.262 246.162 667.062 246.162 667.862 245.862C667.962 245.762 668.162 245.762 668.262 245.662L693.462 283.162L630.362 339.162C630.062 338.962 629.762 338.862 629.562 338.662ZM39.6617 374.862L64.3617 346.662C65.3617 347.362 66.7617 347.562 68.0617 347.062L96.1617 397.862C95.8617 398.162 95.6617 398.462 95.4617 398.762L39.6617 374.862ZM196.762 237.562L120.762 297.762C120.562 297.562 120.362 297.462 120.162 297.262L154.162 226.862C154.962 227.162 155.962 227.162 156.862 226.862C157.862 226.462 158.662 225.762 159.162 224.862L196.762 237.562ZM724.862 7.86174C725.362 7.66174 725.762 7.46172 726.062 7.16172L758.562 37.0617L704.062 62.2617L722.662 7.96174C723.362 8.16174 724.062 8.16174 724.862 7.86174ZM746.962 358.462L724.862 261.062C725.262 260.962 725.562 260.762 725.862 260.562L783.762 321.562L749.762 359.262C748.962 358.662 747.962 358.362 746.962 358.462ZM496.962 317.462C496.762 317.562 496.562 317.662 496.362 317.762L491.762 311.562L508.962 258.862L498.562 317.262C498.062 317.262 497.462 317.262 496.962 317.462ZM469.662 374.162L460.362 272.862C460.562 272.862 460.662 272.762 460.862 272.762C461.062 272.662 461.262 272.562 461.462 272.462L490.662 311.862L470.262 374.262C470.062 374.162 469.862 374.162 469.662 374.162ZM383.162 341.962L375.062 275.762C375.162 275.762 375.362 275.662 375.462 275.662C375.762 275.562 376.062 275.362 376.362 275.162L412.562 315.562L385.562 342.762C384.862 342.262 384.062 341.962 383.162 341.962ZM260.762 275.062L273.562 254.562C274.462 254.962 275.562 255.062 276.662 254.662C276.862 254.562 277.062 254.462 277.262 254.362L325.162 320.162C325.062 320.262 325.062 320.262 324.962 320.362L260.762 275.062ZM225.862 325.862L218.862 273.962L215.262 246.962C215.362 246.962 215.462 246.862 215.562 246.862C216.162 246.662 216.762 246.262 217.162 245.762L259.262 275.462L227.562 326.362C227.162 325.962 226.562 325.862 225.862 325.862ZM178.262 386.762L107.262 358.962L117.662 304.762C118.162 304.762 118.762 304.762 119.262 304.562C119.462 304.462 119.662 304.362 119.762 304.362L178.762 385.762C178.662 386.062 178.462 386.362 178.262 386.762ZM97.4617 397.062C97.2617 397.162 97.1617 397.162 96.9617 397.262L68.9617 346.562C69.3617 346.262 69.7617 345.962 69.9617 345.462L106.062 359.562L98.9617 396.762C98.4617 396.762 97.9617 396.862 97.4617 397.062ZM116.662 304.562L106.262 358.562L70.4617 344.562C70.7617 343.662 70.7617 342.762 70.4617 341.862C70.3617 341.762 70.3617 341.562 70.2617 341.462L115.162 303.662C115.562 304.062 116.062 304.362 116.662 304.562ZM121.762 299.262C121.762 299.162 121.662 299.162 121.662 299.062L152.762 280.462L211.062 245.462C211.562 246.062 212.162 246.462 212.862 246.762L196.162 321.362L121.962 301.262C122.062 300.562 121.962 299.962 121.762 299.262ZM217.862 244.762C217.962 244.462 218.162 244.162 218.162 243.862L271.262 250.762C271.262 251.262 271.362 251.662 271.462 252.162C271.762 252.862 272.162 253.462 272.662 253.862L259.862 274.362L217.862 244.762ZM509.262 159.762L475.062 231.962L447.862 217.762C448.162 216.862 448.262 215.862 447.862 214.862C447.762 214.562 447.562 214.262 447.462 214.062L508.762 159.362C508.962 159.562 509.062 159.662 509.262 159.762ZM510.362 230.762L510.262 247.462C509.962 247.462 509.762 247.562 509.462 247.662C508.762 247.962 508.162 248.362 507.662 248.962L475.962 232.462L510.162 160.262C510.362 160.362 510.662 160.362 510.862 160.462L510.362 230.762ZM801.962 81.0617C802.262 81.8617 802.762 82.5617 803.462 83.0617L772.362 143.862L702.962 67.4617C703.362 66.9617 703.662 66.4617 703.762 65.8617L801.562 79.6617C801.662 80.0617 801.762 80.5617 801.962 81.0617ZM815.962 191.562C816.162 192.062 816.462 192.562 816.762 192.962L782.262 234.662C781.662 234.362 781.062 234.062 780.462 234.062L779.662 191.862L815.762 190.862C815.762 191.062 815.862 191.362 815.962 191.562ZM804.762 340.562C804.362 340.662 804.062 340.862 803.762 341.062L785.162 321.562L806.162 298.262C806.662 298.562 807.262 298.862 807.862 298.962L805.762 340.462C805.462 340.362 805.162 340.462 804.762 340.562ZM666.562 238.062L664.062 189.062C664.162 189.062 664.162 189.062 664.262 189.062C664.562 188.962 664.762 188.862 665.062 188.662L695.062 224.262L669.762 239.662C668.862 238.562 667.762 238.062 666.562 238.062ZM326.762 319.062C326.462 319.162 326.262 319.262 325.962 319.462L278.062 253.762C278.562 253.362 278.862 252.762 279.062 252.162L343.762 265.862L328.462 318.762C327.962 318.762 327.362 318.862 326.762 319.062ZM364.062 199.562C364.262 199.562 364.462 199.562 364.662 199.562L369.662 239.962L373.062 267.862C372.962 267.862 372.762 267.962 372.662 267.962C371.462 268.362 370.662 269.362 370.262 270.462L345.162 265.162L364.062 199.562ZM474.662 232.962L459.662 264.762C459.162 264.762 458.662 264.862 458.262 264.962C457.962 265.062 457.762 265.162 457.462 265.362L445.662 220.162C446.362 219.862 446.962 219.362 447.462 218.762L474.662 232.962ZM444.562 220.462L456.462 266.162C456.162 266.462 455.962 266.862 455.762 267.162L418.262 237.462L441.162 219.362C442.162 220.162 443.362 220.562 444.562 220.462ZM455.462 268.262C455.462 268.562 455.462 268.762 455.462 269.062L378.062 271.162C378.062 270.862 377.962 270.662 377.862 270.362C377.762 270.162 377.662 269.862 377.562 269.662L417.562 238.062L455.462 268.262ZM376.962 268.862C376.262 268.162 375.162 267.762 374.162 267.662L370.662 239.262L365.762 199.462C365.862 199.462 366.062 199.362 366.162 199.362C366.762 199.162 367.162 198.862 367.562 198.462L416.762 237.462L376.962 268.862ZM463.262 267.162C462.762 266.062 461.762 265.262 460.662 264.962L475.562 233.462L507.162 249.862C506.862 250.462 506.762 251.262 506.862 251.962L463.262 267.162ZM777.862 155.262L778.562 190.862L752.262 191.562C752.262 191.262 752.162 191.062 752.062 190.762C751.862 190.162 751.462 189.662 751.062 189.262L776.362 154.762C776.862 154.962 777.362 155.162 777.862 155.262ZM778.762 234.262C778.562 234.362 778.362 234.462 778.162 234.562L750.962 195.262C751.762 194.562 752.162 193.662 752.262 192.662L778.562 191.962L779.362 234.162C779.162 234.162 778.962 234.262 778.762 234.262ZM777.262 235.262C776.462 236.062 775.962 237.262 776.062 238.462L756.162 204.562L777.262 235.262ZM663.062 181.062L659.662 123.762C659.862 123.762 660.062 123.662 660.262 123.562C660.762 123.362 661.262 123.062 661.662 122.662L677.462 135.462L663.362 181.062C663.362 181.062 663.162 181.062 663.062 181.062ZM666.562 183.662C666.162 182.562 665.362 181.762 664.462 181.362L678.362 136.162L744.762 190.062C744.562 190.462 744.362 190.862 744.262 191.362L666.762 184.962C666.762 184.462 666.762 184.062 666.562 183.662ZM745.462 189.262L678.762 135.162L699.262 68.8617C699.762 68.9617 700.362 68.9617 700.862 68.8617L746.462 188.762C746.062 188.762 745.762 188.962 745.462 189.262ZM697.862 68.3617C697.962 68.4617 698.062 68.4617 698.162 68.4617L677.862 134.362L662.362 121.762C662.962 120.762 663.162 119.462 662.762 118.262C662.562 117.662 662.162 117.162 661.762 116.762L671.862 103.162L697.862 68.3617ZM658.562 123.762L661.962 181.062C661.762 181.062 661.562 181.162 661.362 181.262C660.362 181.662 659.662 182.362 659.162 183.162L637.962 173.862L657.862 123.562C658.162 123.762 658.362 123.762 658.562 123.762ZM658.762 184.162C658.562 184.862 658.662 185.662 658.862 186.462C659.062 186.862 659.262 187.262 659.462 187.562L614.462 234.462C614.362 234.362 614.162 234.262 614.062 234.162L637.562 174.862L658.762 184.162ZM615.962 236.362C615.762 235.962 615.562 235.562 615.362 235.262L660.562 188.562C660.762 188.662 660.962 188.762 661.162 188.862L646.162 240.262L616.262 237.662C616.162 237.162 616.162 236.762 615.962 236.362ZM665.762 187.862C666.262 187.362 666.562 186.662 666.762 185.962L744.262 192.362C744.262 192.762 744.362 193.162 744.462 193.562C744.462 193.662 744.562 193.762 744.562 193.762L695.862 223.462L665.762 187.862ZM745.062 194.762C745.362 195.162 745.862 195.562 746.262 195.762L724.462 253.262C723.662 253.062 722.862 253.062 722.162 253.362C721.862 253.462 721.662 253.562 721.362 253.762L696.562 224.262L745.062 194.762ZM726.962 259.362L804.662 293.562C804.362 294.362 804.362 295.362 804.662 296.262C804.862 296.762 805.062 297.162 805.362 297.562L784.362 320.762L726.562 259.862C726.762 259.662 726.862 259.562 726.962 259.362ZM805.062 292.662L727.362 258.462C727.562 257.662 727.562 256.762 727.262 255.962C726.862 254.962 726.262 254.262 725.362 253.762L747.262 196.262C748.062 196.462 748.862 196.462 749.562 196.162C749.662 196.162 749.662 196.062 749.762 196.062L806.062 291.662C805.762 291.862 805.362 292.262 805.062 292.662ZM777.862 241.562C778.862 242.162 780.062 242.362 781.262 242.062L800.562 280.262L777.862 241.562ZM815.662 189.762L779.562 190.762L778.862 155.162C779.162 155.162 779.362 155.062 779.662 154.962C780.062 154.762 780.462 154.562 780.862 154.262L816.362 187.762C816.062 188.362 815.762 189.062 815.662 189.762ZM774.562 152.562C774.762 153.162 775.162 153.662 775.562 154.062L751.762 186.562L772.662 145.562L775.262 148.462C774.362 149.662 773.962 151.162 774.562 152.562ZM749.662 188.362C748.962 188.062 748.162 188.062 747.362 188.262L701.862 68.6617L701.962 68.2617C702.062 68.1617 702.162 68.1617 702.262 68.0617L771.862 144.762L749.662 188.362ZM655.262 121.562C655.662 122.262 656.262 122.862 656.862 123.262L636.962 173.462L583.362 149.962C583.562 149.362 583.562 148.662 583.462 147.962L655.262 121.562ZM582.962 150.962L636.562 174.462L613.162 233.862C612.562 233.662 611.862 233.662 611.262 233.862L581.462 152.462C582.062 152.062 582.662 151.562 582.962 150.962ZM440.262 217.762C440.362 218.062 440.462 218.262 440.662 218.562L417.562 236.762L368.162 197.662C368.262 197.462 368.362 197.262 368.462 197.062L440.062 215.962C439.962 216.562 440.062 217.162 440.262 217.762ZM363.062 199.262L344.162 264.862L279.362 251.162C279.362 250.562 279.362 249.962 279.162 249.462C279.162 249.362 279.062 249.262 279.062 249.162L361.562 198.162C361.962 198.662 362.462 199.062 363.062 199.262ZM329.562 319.062L344.862 266.062L370.062 271.362C370.062 271.962 370.062 272.562 370.262 273.062C370.462 273.562 370.662 273.962 370.962 274.262L330.362 319.362C330.162 319.362 329.862 319.162 329.562 319.062ZM377.162 274.462C377.662 273.862 378.062 273.062 378.162 272.262L429.662 270.862L455.762 270.162V270.262C455.862 270.662 456.162 271.062 456.362 271.362L413.362 314.762L377.162 274.462ZM462.362 271.762C463.362 270.862 463.762 269.462 463.562 268.062L507.162 252.962C507.562 253.962 508.262 254.662 509.162 255.162L491.062 310.562L462.362 271.762ZM514.962 251.162L583.362 242.162L608.162 238.862C608.162 238.962 608.262 239.062 608.262 239.262C609.062 241.362 611.362 242.462 613.462 241.662L632.162 278.662C631.362 279.062 630.762 279.762 630.462 280.562L514.962 251.762C514.962 251.462 514.962 251.362 514.962 251.162ZM633.162 278.162L614.462 241.162C615.362 240.562 615.962 239.662 616.162 238.662L645.862 241.262L635.062 278.162C634.462 278.062 633.762 278.062 633.162 278.162ZM662.162 189.162C662.462 189.162 662.762 189.262 662.962 189.162L665.462 238.162C665.362 238.162 665.162 238.262 665.062 238.262C663.562 238.862 662.562 240.162 662.462 241.662L647.262 240.362L662.162 189.162ZM670.262 240.662C670.262 240.562 670.162 240.462 670.162 240.462L695.562 224.962L720.462 254.562C720.162 254.962 719.862 255.362 719.662 255.762L670.462 242.662C670.562 241.962 670.462 241.362 670.262 240.662ZM784.462 322.262L802.962 341.762C802.262 342.662 801.862 343.862 802.062 345.062L750.962 360.962C750.862 360.562 750.662 360.262 750.362 359.962L784.462 322.262ZM802.462 346.062C803.362 347.962 805.562 348.962 807.562 348.162C808.962 347.662 809.962 346.362 810.162 344.962L870.462 346.762L753.162 361.362L802.462 346.062ZM873.262 345.862L810.162 343.962C810.162 343.662 810.062 343.262 809.962 342.962C809.762 342.362 809.362 341.862 808.962 341.362L830.262 311.762L873.762 344.362C873.562 344.962 873.362 345.362 873.262 345.862ZM808.062 340.862C807.662 340.662 807.262 340.562 806.862 340.462L808.962 298.962C809.262 298.962 809.562 298.862 809.962 298.762C810.562 298.562 811.062 298.162 811.462 297.762L829.462 311.262L808.062 340.862ZM812.062 296.862C812.662 295.862 812.762 294.662 812.362 293.462C812.262 293.262 812.162 293.062 812.062 292.862L879.562 241.462L879.662 241.562L830.062 310.362L812.062 296.862ZM878.662 239.962C878.762 240.162 878.862 240.362 878.962 240.562L811.462 291.962C810.962 291.462 810.262 291.062 809.562 290.862L815.162 238.762L878.562 239.062C878.462 239.362 878.562 239.662 878.662 239.962ZM808.462 290.762C808.062 290.762 807.762 290.862 807.362 290.962L782.362 241.562C783.362 240.962 784.062 239.862 784.262 238.662L814.062 238.762L808.462 290.762ZM784.162 237.662C784.162 237.362 784.062 237.062 783.962 236.762C783.762 236.262 783.462 235.762 783.162 235.362L817.662 193.662C818.062 193.862 818.462 194.062 818.862 194.162L814.162 237.762L784.162 237.662ZM776.962 147.362C776.662 147.462 776.362 147.662 776.062 147.862L773.162 144.662L801.762 88.6617L779.262 147.262C778.562 147.062 777.762 147.062 776.962 147.362ZM801.862 78.5617L704.062 64.7617C704.062 64.3617 703.962 63.9617 703.862 63.4617L759.462 37.6617L802.462 77.1617C802.162 77.6617 801.962 78.1617 801.862 78.5617ZM697.062 67.6617L660.862 116.162C659.862 115.562 658.662 115.462 657.462 115.862C655.662 116.562 654.662 118.262 654.862 120.062L641.462 106.262L696.962 67.5617L697.062 67.6617ZM654.162 120.862L583.162 146.862L640.562 106.762L654.162 120.862ZM580.462 152.762L610.262 234.162C609.962 234.362 609.562 234.562 609.362 234.862L552.962 189.262L577.662 152.462C578.562 152.862 579.462 152.962 580.462 152.762ZM608.662 235.662C608.262 236.262 608.062 237.062 608.062 237.762L556.862 244.562L541.862 246.562L514.762 250.162C514.462 249.362 513.962 248.762 513.362 248.362L552.362 190.262L608.662 235.662ZM512.462 247.762C512.062 247.662 511.762 247.562 511.362 247.462L511.462 231.562L511.962 160.362C512.262 160.362 512.562 160.262 512.862 160.162C513.362 159.962 513.862 159.662 514.262 159.262L551.562 189.462L512.462 247.762ZM508.062 158.662L446.762 213.362C445.662 212.362 444.062 212.062 442.662 212.562C442.162 212.762 441.762 212.962 441.462 213.262L409.662 184.162L507.862 158.162C507.962 158.362 507.962 158.562 508.062 158.662ZM440.762 214.062C440.562 214.362 440.462 214.662 440.262 214.962L368.662 196.062C368.662 195.762 368.662 195.362 368.662 195.062L408.362 184.562L440.762 214.062ZM368.462 194.062C367.762 192.262 365.862 191.262 364.062 191.562L344.262 127.262C344.562 127.062 344.962 126.862 345.162 126.662L407.462 183.662L368.462 194.062ZM343.262 127.562L362.962 191.862C361.062 192.762 360.062 194.962 360.862 196.962C360.862 197.062 360.962 197.162 360.962 197.262L278.462 248.262C278.262 247.962 277.962 247.762 277.662 247.462L341.162 127.362C341.862 127.562 342.562 127.662 343.262 127.562ZM271.362 249.762L218.262 242.862C218.262 242.362 218.162 241.962 218.062 241.462C217.562 240.062 216.462 239.162 215.062 238.862L216.062 227.062C216.462 227.062 216.862 226.962 217.262 226.862C218.162 226.562 218.862 225.962 219.262 225.262L271.362 249.762ZM215.062 226.962L214.062 238.762C213.662 238.762 213.262 238.862 212.862 238.962C211.862 239.362 211.062 240.062 210.562 240.962L198.862 236.962L213.062 225.762C213.562 226.462 214.262 226.862 215.062 226.962ZM210.262 242.162C210.162 242.862 210.162 243.662 210.462 244.362C210.462 244.462 210.562 244.462 210.562 244.562L124.562 296.162L197.962 238.062L210.262 242.162ZM119.162 296.862C118.362 296.562 117.362 296.562 116.462 296.862C115.562 297.162 114.762 297.862 114.362 298.662L103.762 294.262L152.462 227.962L119.162 296.862ZM113.962 299.562C113.762 300.362 113.762 301.162 114.062 302.062C114.162 302.362 114.262 302.562 114.462 302.862L69.7617 340.462L103.062 295.062L113.962 299.562ZM102.862 400.062C102.862 399.862 102.762 399.662 102.662 399.462C102.162 398.162 101.162 397.262 99.9617 396.962L107.062 359.962L178.062 387.762C178.062 388.062 178.062 388.362 178.062 388.662L160.362 391.362L102.862 400.062ZM180.662 384.362C180.262 384.462 179.862 384.662 179.562 384.962L120.662 303.662C121.062 303.262 121.362 302.762 121.662 302.262L195.962 322.362L182.162 384.062C181.662 384.062 181.162 384.162 180.662 384.362ZM213.862 246.962C213.962 246.962 214.162 246.962 214.262 246.962L217.962 274.262L224.862 325.862C224.762 325.862 224.662 325.962 224.462 325.962C223.362 326.362 222.462 327.262 222.062 328.262L197.162 321.462L213.862 246.962ZM229.762 328.462C229.462 327.762 229.062 327.162 228.562 326.762L260.262 275.962L324.462 321.262C324.262 321.762 324.162 322.262 324.062 322.762L229.862 329.162C229.862 328.962 229.762 328.662 229.762 328.462ZM331.962 321.462C331.762 320.962 331.462 320.462 331.162 320.162L371.762 275.162C372.462 275.662 373.262 275.862 374.062 275.862L382.162 342.062C382.062 342.062 381.862 342.162 381.762 342.162C380.862 342.462 380.062 343.162 379.662 343.962L332.162 324.062C332.362 323.162 332.262 322.362 331.962 321.462ZM386.962 344.562C386.862 344.162 386.562 343.762 386.362 343.462L413.262 316.262L466.462 375.562C466.262 375.762 466.062 376.062 465.962 376.362L387.162 346.962C387.262 346.162 387.262 345.362 386.962 344.562ZM414.062 315.562L457.162 272.062C457.862 272.562 458.662 272.862 459.462 272.862L468.762 374.162C468.562 374.162 468.462 374.262 468.262 374.262C467.962 374.362 467.662 374.562 467.362 374.762L414.062 315.562ZM491.462 312.862L495.562 318.462C494.462 319.562 493.962 321.262 494.562 322.762C494.862 323.562 495.462 324.262 496.062 324.762L472.162 371.962L491.462 312.862ZM499.662 317.462L510.762 255.562C511.262 255.562 511.862 255.462 512.362 255.362C513.562 254.862 514.462 253.962 514.862 252.762L630.162 281.462C630.062 281.962 630.062 282.462 630.162 283.062L502.162 319.662C501.662 318.562 500.662 317.762 499.662 317.462ZM636.062 278.562L646.862 241.362L662.362 242.762C662.362 243.062 662.462 243.262 662.562 243.562C662.762 244.162 663.062 244.662 663.562 245.062L636.362 278.862C636.262 278.662 636.162 278.562 636.062 278.562ZM669.162 245.162C669.662 244.762 669.962 244.262 670.262 243.662L719.462 256.762C719.362 257.362 719.462 258.062 719.662 258.662C719.762 258.962 719.962 259.262 720.162 259.562L694.262 282.562L669.162 245.162ZM720.762 260.362C721.562 261.062 722.662 261.462 723.862 261.362L745.962 358.762C745.962 358.762 745.962 358.762 745.862 358.762C745.762 358.862 745.562 358.862 745.462 358.962L694.862 283.462L720.762 260.362ZM876.962 342.462C876.562 342.462 876.262 342.562 875.862 342.662C875.262 342.862 874.762 343.262 874.362 343.662L830.862 310.962L880.562 242.062C880.962 242.262 881.362 242.362 881.762 242.462L876.962 342.462ZM878.962 236.462C878.662 236.962 878.562 237.462 878.462 237.962L815.162 237.662L819.862 194.162C820.262 194.162 820.762 194.062 821.162 193.962C821.762 193.762 822.262 193.462 822.662 193.062L878.962 236.462ZM804.362 75.8617C803.862 76.0617 803.462 76.2617 803.162 76.5617L760.462 37.3617L789.662 23.8617C790.462 25.1617 791.962 25.8617 793.462 25.7617L804.362 75.8617ZM789.062 21.1617C788.962 21.7617 789.062 22.2617 789.262 22.8617L759.662 36.5617L726.762 6.36174C726.962 6.06174 727.062 5.86172 727.262 5.56172L789.062 21.1617ZM720.262 6.56172C720.662 7.06172 721.162 7.36172 721.662 7.66172L703.062 62.0617C701.962 60.8617 700.262 60.2617 698.562 60.8617C696.962 61.4617 695.962 62.9617 695.862 64.5617L611.062 72.4617L720.262 6.56172ZM695.962 65.6617C695.962 65.8617 696.062 65.9617 696.062 66.1617C696.162 66.3617 696.162 66.4617 696.262 66.6617L640.662 105.462L609.962 73.6617L695.962 65.6617ZM639.862 106.062L582.562 146.062C582.262 145.762 581.862 145.462 581.462 145.262L609.062 74.2617L639.862 106.062ZM575.562 149.762C575.562 149.862 575.662 150.062 575.662 150.162C575.862 150.862 576.262 151.362 576.762 151.862L552.162 188.662L514.862 158.562C515.262 157.962 515.462 157.262 515.462 156.462L575.562 149.762ZM505.362 157.862L408.762 183.362L345.962 125.862C346.162 125.562 346.362 125.262 346.462 124.862L505.362 157.862ZM211.862 223.562C211.862 223.862 211.962 224.162 212.062 224.462C212.162 224.662 212.262 224.962 212.362 225.162L197.662 236.862L159.362 223.962C159.362 223.862 159.362 223.762 159.362 223.662L211.862 223.562ZM152.462 225.762C152.562 225.862 152.562 225.862 152.662 225.962L102.862 293.762L75.1617 282.362C75.3617 281.562 75.3617 280.762 75.0617 279.862C74.9617 279.662 74.9617 279.562 74.8617 279.362L152.462 225.762ZM71.4617 285.362C71.8617 285.362 72.2617 285.262 72.6617 285.162C73.5617 284.862 74.3617 284.162 74.7617 283.362L102.062 294.762L68.8617 339.962C68.4617 339.662 68.0617 339.462 67.5617 339.362L71.4617 285.362ZM62.7617 344.662C62.9617 345.162 63.1617 345.562 63.5617 345.962L38.6617 374.462L7.96173 361.262C8.06173 360.862 8.16173 360.462 8.16173 359.962L62.9617 345.162L62.7617 344.662ZM7.56173 362.162L37.9617 375.162L24.4617 390.562C23.4617 389.862 22.0617 389.662 20.7617 390.162L6.66173 363.162C7.06173 362.862 7.36173 362.562 7.56173 362.162ZM26.2617 393.862C26.2617 393.462 26.1617 393.062 26.0617 392.662C25.8617 392.162 25.6617 391.762 25.2617 391.362L38.9617 375.762L95.0617 399.862C95.0617 399.962 95.0617 400.062 94.9617 400.062L26.2617 393.862ZM184.062 384.562C183.762 384.462 183.462 384.262 183.162 384.162L196.962 322.562L221.862 329.362C221.762 329.962 221.862 330.662 222.062 331.262C222.262 331.862 222.662 332.362 223.062 332.862L184.062 384.562ZM245.162 365.462L228.262 333.162C229.262 332.462 229.862 331.362 229.962 330.162L324.262 323.762C324.262 323.962 324.362 324.162 324.362 324.262L245.162 365.462ZM634.262 286.162C634.662 286.162 635.162 286.062 635.562 285.962C637.662 285.162 638.762 282.862 637.962 280.762C637.762 280.262 637.562 279.862 637.162 279.462L664.362 245.662H664.462L628.562 338.262L634.262 286.162ZM631.662 342.462C631.662 341.962 631.562 341.462 631.462 340.862C631.362 340.562 631.162 340.262 630.962 339.962L693.962 284.062L744.562 359.462C743.962 359.962 743.562 360.662 743.362 361.462L631.662 342.462ZM748.062 366.462C748.262 366.462 748.462 366.362 748.662 366.262C749.362 365.962 749.962 365.562 750.462 364.962L796.262 391.662L753.262 415.962C752.562 414.962 751.362 414.362 750.062 414.262L748.062 366.462ZM753.962 418.962C754.062 418.362 753.962 417.662 753.762 417.062C753.762 417.062 753.762 417.062 753.762 416.962L797.262 392.362L887.662 445.062C887.662 445.162 887.562 445.262 887.562 445.362L753.962 418.962Z" fill="black"/>
</svg>
